<svg xmlns="http://www.w3.org/2000/svg" width="21.005" height="21"><path d="M1.315 19.031A1.97 1.97 0 0 0 3.283 21h14.438a1.97 1.97 0 0 0 1.969-1.969V7.875H1.315zm13.125-8.039c0-.27.221-.492.492-.492h1.64c.271 0 .493.221.493.492v1.64c0 .272-.222.493-.493.493h-1.64a.494.494 0 0 1-.492-.492zm0 5.25c0-.27.221-.492.492-.492h1.64c.271 0 .493.221.493.492v1.64c0 .272-.222.493-.493.493h-1.64a.494.494 0 0 1-.492-.492zm-5.25-5.25c0-.27.221-.492.492-.492h1.64c.271 0 .493.221.493.492v1.64c0 .272-.222.493-.493.493h-1.64a.494.494 0 0 1-.492-.492zm0 5.25c0-.27.221-.492.492-.492h1.64c.271 0 .493.221.493.492v1.64c0 .272-.222.493-.493.493h-1.64a.494.494 0 0 1-.492-.492zm-5.25-5.25c0-.27.221-.492.492-.492h1.64c.271 0 .493.221.493.492v1.64c0 .272-.222.493-.493.493h-1.64a.494.494 0 0 1-.492-.492zm0 5.25c0-.27.221-.492.492-.492h1.64c.271 0 .493.221.493.492v1.64c0 .272-.222.493-.493.493h-1.64a.494.494 0 0 1-.492-.492zM17.72 2.625h-1.968V.656A.658.658 0 0 0 15.096 0h-1.313a.658.658 0 0 0-.656.656v1.969h-5.25V.656A.658.658 0 0 0 7.221 0H5.908a.658.658 0 0 0-.656.656v1.969H3.283a1.97 1.97 0 0 0-1.968 1.969v1.968H19.69V4.595a1.97 1.97 0 0 0-1.97-1.969z"/></svg>