<svg xmlns="http://www.w3.org/2000/svg" width="21.005" height="21"><path d="M8.862 0h3.281c.546 0 .984.439.984.984v6.891h3.598c.73 0 1.095.882.578 1.399l-6.239 6.242a.795.795 0 0 1-1.12 0L3.699 9.274a.819.819 0 0 1 .578-1.399h3.601V.985c0-.546.44-.985.985-.985zm12.14 15.422v4.594a.982.982 0 0 1-.984.984H.987a.982.982 0 0 1-.985-.984v-4.594c0-.546.44-.985.985-.985h6.017l2.01 2.01a2.102 2.102 0 0 0 2.977 0l2.01-2.01h6.017c.546 0 .984.44.984.985zm-5.085 3.61a.823.823 0 0 0-.82-.821.823.823 0 0 0-.821.82c0 .451.37.82.82.82.451 0 .82-.369.82-.82zm2.625 0a.823.823 0 0 0-.82-.821.823.823 0 0 0-.821.82c0 .451.37.82.82.82.451 0 .82-.369.82-.82z"/></svg>