<svg xmlns="http://www.w3.org/2000/svg" width="21" height="21"><path d="M7.062 16.68c0 .084-.096.151-.218.151-.138.013-.234-.054-.234-.15 0-.084.096-.152.218-.152.125-.012.234.055.234.151zm-1.302-.188c-.03.084.054.18.18.205.109.042.235 0 .26-.084.025-.083-.055-.18-.18-.217-.11-.03-.23.012-.26.096zm1.85-.071c-.12.029-.204.109-.192.205.013.084.122.138.247.109.122-.03.205-.11.193-.193-.013-.08-.126-.134-.247-.121zM10.367.375C4.558.375.116 4.785.116 10.592c0 4.644 2.922 8.617 7.097 10.016.536.096.724-.235.724-.507 0-.26-.012-1.691-.012-2.57 0 0-2.931.627-3.547-1.249 0 0-.477-1.218-1.164-1.532 0 0-.959-.657.067-.645 0 0 1.043.084 1.616 1.08.917 1.617 2.454 1.152 3.053.876.096-.67.368-1.135.67-1.412-2.34-.26-4.702-.598-4.702-4.627 0-1.151.318-1.729.988-2.466-.11-.272-.465-1.394.109-2.843.875-.272 2.889 1.13 2.889 1.13a9.838 9.838 0 0 1 2.63-.355c.891 0 1.792.121 2.63.356 0 0 2.013-1.407 2.888-1.131.574 1.453.218 2.571.11 2.843.67.741 1.08 1.32 1.08 2.466 0 4.041-2.467 4.364-4.807 4.627.385.331.711.96.711 1.943 0 1.411-.012 3.158-.012 3.5 0 .273.192.604.724.508 4.187-1.39 7.026-5.364 7.026-10.008 0-5.808-4.71-10.217-10.518-10.217zm-6.18 14.442c-.055.042-.042.138.029.218.067.067.163.096.218.042.054-.042.041-.139-.03-.218-.067-.067-.163-.097-.217-.042zm-.453-.34c-.029.055.013.122.097.164.067.042.15.03.18-.03.029-.054-.013-.12-.097-.163-.083-.025-.15-.012-.18.03zm1.357 1.491c-.067.055-.042.18.054.26.097.096.218.109.273.042.054-.055.029-.18-.055-.26-.092-.096-.218-.109-.272-.042zm-.477-.615c-.067.042-.067.15 0 .247.067.096.18.138.234.096.067-.054.067-.163 0-.26-.058-.096-.167-.138-.234-.083z" fill="#fff"/></svg>