<?xml version="1.0" encoding="UTF-8"?>
<svg width="244.17mm" height="244.17mm" version="1.1" viewBox="0 0 244.17 244.17" xmlns="http://www.w3.org/2000/svg" xmlns:cc="http://creativecommons.org/ns#" xmlns:dc="http://purl.org/dc/elements/1.1/" xmlns:rdf="http://www.w3.org/1999/02/22-rdf-syntax-ns#" xmlns:xlink="http://www.w3.org/1999/xlink">
 <defs>
  <clipPath id="clip2">
   <path d="m0 204.8h166.4v-204.8h-166.4z"/>
  </clipPath>
  <clipPath>
   <path d="m11.199 12.887v180.8c48 0 96-4e-3 144 0v-112.35c-23.188-23.363-46.461-46.641-69.598-70.051h-74.402v0.80078z"/>
  </clipPath>
  <clipPath id="clip1">
   <rect width="167" height="205"/>
  </clipPath>
  <g clip-path="url(#clip1)">
   <g clip-path="url(#clip2)"></g>
  </g>
  <clipPath>
   <path d="m6.3984 8v190.4h153.6v-121.13c-23.508-23.602-46.996-47.219-70.449-70.875h-83.152v1.6016z"/>
  </clipPath>
  <clipPath id="clip8">
   <path d="m0 204.8h166.4v-204.8h-166.4z"/>
  </clipPath>
  <clipPath>
   <path d="m11.199 12.887v180.8c48 0 96-4e-3 144 0v-112.35c-23.188-23.363-46.461-46.641-69.598-70.051h-74.402v0.80078z"/>
  </clipPath>
  <clipPath id="clip7">
   <rect width="167" height="205"/>
  </clipPath>
  <g clip-path="url(#clip7)">
   <g clip-path="url(#clip8)"></g>
  </g>
  <clipPath>
   <rect width="167" height="205"/>
  </clipPath>
  <clipPath id="clip12">
   <path d="m0 204.8h166.4v-204.8h-166.4z"/>
  </clipPath>
  <clipPath id="clip13">
   <path d="m0 204.8h166.4v-204.8h-166.4z"/>
  </clipPath>
  <clipPath>
   <path d="m0 204.8h167v-205h-167z"/>
  </clipPath>
  <clipPath>
   <rect width="167" height="205"/>
  </clipPath>
  <clipPath id="clip11">
   <rect width="167" height="205"/>
  </clipPath>
  <g clip-path="url(#clip11)">
   <g clip-path="url(#clip12)">
    <g clip-path="url(#clip13)"></g>
   </g>
  </g>
  <clipPath>
   <rect width="167" height="205"/>
  </clipPath>
  <clipPath id="clip18">
   <path d="m0 204.8h166.4v-204.8h-166.4z"/>
  </clipPath>
  <clipPath id="clip19">
   <path d="m0 204.8h166.4v-204.8h-166.4z"/>
  </clipPath>
  <clipPath>
   <path d="m0 204.8h167v-205h-167z"/>
  </clipPath>
  <clipPath id="clip23">
   <path d="m0 204.8h166.4v-204.8h-166.4z"/>
  </clipPath>
  <clipPath id="clip24">
   <path d="m0 204.8h166.4v-204.8h-166.4z"/>
  </clipPath>
  <clipPath id="clip25">
   <path d="m0 204.8h167v-205h-167z"/>
  </clipPath>
  <clipPath id="clip26">
   <path d="m0 204.8h167v-205h-167z"/>
  </clipPath>
  <clipPath id="clip27">
   <path d="m0 204.8h167v-205h-167z"/>
  </clipPath>
  <clipPath>
   <path d="m62.398 142.2h-51.199v51.203h51.199z"/>
  </clipPath>
  <clipPath id="clip22">
   <rect width="167" height="205"/>
  </clipPath>
  <g clip-path="url(#clip22)">
   <g clip-path="url(#clip23)">
    <g clip-path="url(#clip24)">
     <g clip-path="url(#clip25)">
      <g clip-path="url(#clip26)">
       <g clip-path="url(#clip27)"></g>
      </g>
     </g>
    </g>
   </g>
  </g>
  <clipPath>
   <rect width="167" height="205"/>
  </clipPath>
  <clipPath id="clip17">
   <rect width="167" height="205"/>
  </clipPath>
  <g clip-path="url(#clip17)">
   <g clip-path="url(#clip18)">
    <g clip-path="url(#clip19)"></g>
   </g>
  </g>
  <clipPath>
   <rect width="167" height="205"/>
  </clipPath>
  <clipPath id="clip31">
   <path d="m0 204.8h166.4v-204.8h-166.4z"/>
  </clipPath>
  <clipPath id="clip32">
   <path d="m0 204.8h166.4v-204.8h-166.4z"/>
  </clipPath>
  <clipPath>
   <path d="m0 204.8h167v-205h-167z"/>
  </clipPath>
  <clipPath id="clip36">
   <path d="m0 204.8h166.4v-204.8h-166.4z"/>
  </clipPath>
  <clipPath id="clip37">
   <path d="m0 204.8h166.4v-204.8h-166.4z"/>
  </clipPath>
  <clipPath id="clip38">
   <path d="m0 204.8h167v-205h-167z"/>
  </clipPath>
  <clipPath id="clip39">
   <path d="m0 204.8h167v-205h-167z"/>
  </clipPath>
  <clipPath id="clip40">
   <path d="m0 204.8h167v-205h-167z"/>
  </clipPath>
  <clipPath>
   <path d="m42.398 193.4h80v0.79688h-80z"/>
  </clipPath>
  <clipPath id="clip35">
   <rect width="167" height="205"/>
  </clipPath>
  <g clip-path="url(#clip35)">
   <g clip-path="url(#clip36)">
    <g clip-path="url(#clip37)">
     <g clip-path="url(#clip38)">
      <g clip-path="url(#clip39)">
       <g clip-path="url(#clip40)"></g>
      </g>
     </g>
    </g>
   </g>
  </g>
  <clipPath>
   <rect width="167" height="205"/>
  </clipPath>
  <clipPath id="clip30">
   <rect width="167" height="205"/>
  </clipPath>
  <g clip-path="url(#clip30)">
   <g clip-path="url(#clip31)">
    <g clip-path="url(#clip32)"></g>
   </g>
  </g>
  <clipPath>
   <rect width="167" height="205"/>
  </clipPath>
  <clipPath id="clip44">
   <path d="m0 204.8h166.4v-204.8h-166.4z"/>
  </clipPath>
  <clipPath id="clip45">
   <path d="m0 204.8h166.4v-204.8h-166.4z"/>
  </clipPath>
  <clipPath>
   <path d="m0 204.8h167v-205h-167z"/>
  </clipPath>
  <clipPath id="clip49">
   <path d="m0 204.8h166.4v-204.8h-166.4z"/>
  </clipPath>
  <clipPath id="clip50">
   <path d="m0 204.8h166.4v-204.8h-166.4z"/>
  </clipPath>
  <clipPath id="clip51">
   <path d="m0 204.8h167v-205h-167z"/>
  </clipPath>
  <clipPath id="clip52">
   <path d="m0 204.8h167v-205h-167z"/>
  </clipPath>
  <clipPath id="clip53">
   <path d="m0 204.8h167v-205h-167z"/>
  </clipPath>
  <clipPath>
   <path d="m11.199 11v182.4h-0.80078v-182.4z"/>
  </clipPath>
  <clipPath id="clip48">
   <rect width="167" height="205"/>
  </clipPath>
  <g clip-path="url(#clip48)">
   <g clip-path="url(#clip49)">
    <g clip-path="url(#clip50)">
     <g clip-path="url(#clip51)">
      <g clip-path="url(#clip52)">
       <g clip-path="url(#clip53)"></g>
      </g>
     </g>
    </g>
   </g>
  </g>
  <clipPath>
   <rect width="167" height="205"/>
  </clipPath>
  <clipPath id="clip43">
   <rect width="167" height="205"/>
  </clipPath>
  <g clip-path="url(#clip43)">
   <g clip-path="url(#clip44)">
    <g clip-path="url(#clip45)"></g>
   </g>
  </g>
  <clipPath>
   <rect width="167" height="205"/>
  </clipPath>
  <clipPath id="clip57">
   <path d="m0 204.8h166.4v-204.8h-166.4z"/>
  </clipPath>
  <clipPath id="clip58">
   <path d="m0 204.8h166.4v-204.8h-166.4z"/>
  </clipPath>
  <clipPath>
   <path d="m0 204.8h167v-205h-167z"/>
  </clipPath>
  <clipPath id="clip62">
   <path d="m0 204.8h166.4v-204.8h-166.4z"/>
  </clipPath>
  <clipPath id="clip63">
   <path d="m0 204.8h166.4v-204.8h-166.4z"/>
  </clipPath>
  <clipPath id="clip64">
   <path d="m0 204.8h167v-205h-167z"/>
  </clipPath>
  <clipPath id="clip65">
   <path d="m0 204.8h167v-205h-167z"/>
  </clipPath>
  <clipPath id="clip66">
   <path d="m0 204.8h167v-205h-167z"/>
  </clipPath>
  <clipPath>
   <path d="m160.8 80.52v111.68h-0.80078v-111.68z"/>
  </clipPath>
  <clipPath id="clip61">
   <rect width="167" height="205"/>
  </clipPath>
  <g clip-path="url(#clip61)">
   <g clip-path="url(#clip62)">
    <g clip-path="url(#clip63)">
     <g clip-path="url(#clip64)">
      <g clip-path="url(#clip65)">
       <g clip-path="url(#clip66)"></g>
      </g>
     </g>
    </g>
   </g>
  </g>
  <clipPath>
   <rect width="167" height="205"/>
  </clipPath>
  <clipPath id="clip56">
   <rect width="167" height="205"/>
  </clipPath>
  <g clip-path="url(#clip56)">
   <g clip-path="url(#clip57)">
    <g clip-path="url(#clip58)"></g>
   </g>
  </g>
  <clipPath>
   <rect width="167" height="205"/>
  </clipPath>
  <clipPath id="clip70">
   <path d="m0 204.8h166.4v-204.8h-166.4z"/>
  </clipPath>
  <clipPath id="clip71">
   <path d="m0 204.8h166.4v-204.8h-166.4z"/>
  </clipPath>
  <clipPath>
   <path d="m0 204.8h167v-205h-167z"/>
  </clipPath>
  <clipPath id="clip75">
   <path d="m0 204.8h166.4v-204.8h-166.4z"/>
  </clipPath>
  <clipPath id="clip76">
   <path d="m0 204.8h166.4v-204.8h-166.4z"/>
  </clipPath>
  <clipPath id="clip77">
   <path d="m0 204.8h167v-205h-167z"/>
  </clipPath>
  <clipPath id="clip78">
   <path d="m0 204.8h167v-205h-167z"/>
  </clipPath>
  <clipPath id="clip79">
   <path d="m0 204.8h167v-205h-167z"/>
  </clipPath>
  <clipPath>
   <path d="m42.398 198.2h80v0.80078h-80z"/>
  </clipPath>
  <clipPath id="clip74">
   <rect width="167" height="205"/>
  </clipPath>
  <g clip-path="url(#clip74)">
   <g clip-path="url(#clip75)">
    <g clip-path="url(#clip76)">
     <g clip-path="url(#clip77)">
      <g clip-path="url(#clip78)">
       <g clip-path="url(#clip79)"></g>
      </g>
     </g>
    </g>
   </g>
  </g>
  <clipPath>
   <rect width="167" height="205"/>
  </clipPath>
  <clipPath id="clip69">
   <rect width="167" height="205"/>
  </clipPath>
  <g clip-path="url(#clip69)">
   <g clip-path="url(#clip70)">
    <g clip-path="url(#clip71)"></g>
   </g>
  </g>
  <clipPath>
   <rect width="167" height="205"/>
  </clipPath>
  <clipPath id="clip83">
   <path d="m0 204.8h166.4v-204.8h-166.4z"/>
  </clipPath>
  <clipPath id="clip84">
   <path d="m0 204.8h166.4v-204.8h-166.4z"/>
  </clipPath>
  <clipPath>
   <path d="m0 204.8h167v-205h-167z"/>
  </clipPath>
  <clipPath id="clip88">
   <path d="m0 204.8h166.4v-204.8h-166.4z"/>
  </clipPath>
  <clipPath id="clip89">
   <path d="m0 204.8h166.4v-204.8h-166.4z"/>
  </clipPath>
  <clipPath id="clip90">
   <path d="m0 204.8h167v-205h-167z"/>
  </clipPath>
  <clipPath id="clip91">
   <path d="m0 204.8h167v-205h-167z"/>
  </clipPath>
  <clipPath id="clip92">
   <path d="m0 204.8h167v-205h-167z"/>
  </clipPath>
  <clipPath>
   <path d="m12 152.6v40h40v-0.80078h-39.199v-39.199z"/>
  </clipPath>
  <clipPath id="clip87">
   <rect width="167" height="205"/>
  </clipPath>
  <g clip-path="url(#clip87)">
   <g clip-path="url(#clip88)">
    <g clip-path="url(#clip89)">
     <g clip-path="url(#clip90)">
      <g clip-path="url(#clip91)">
       <g clip-path="url(#clip92)"></g>
      </g>
     </g>
    </g>
   </g>
  </g>
  <clipPath>
   <rect width="167" height="205"/>
  </clipPath>
  <clipPath id="clip82">
   <rect width="167" height="205"/>
  </clipPath>
  <g clip-path="url(#clip82)">
   <g clip-path="url(#clip83)">
    <g clip-path="url(#clip84)"></g>
   </g>
  </g>
  <clipPath>
   <rect width="167" height="205"/>
  </clipPath>
  <clipPath id="clip96">
   <path d="m0 204.8h166.4v-204.8h-166.4z"/>
  </clipPath>
  <clipPath id="clip97">
   <path d="m0 204.8h166.4v-204.8h-166.4z"/>
  </clipPath>
  <clipPath>
   <path d="m0 204.8h167v-205h-167z"/>
  </clipPath>
  <clipPath id="clip101">
   <path d="m0 204.8h166.4v-204.8h-166.4z"/>
  </clipPath>
  <clipPath id="clip102">
   <path d="m0 204.8h166.4v-204.8h-166.4z"/>
  </clipPath>
  <clipPath id="clip103">
   <path d="m0 204.8h167v-205h-167z"/>
  </clipPath>
  <clipPath id="clip104">
   <path d="m0 204.8h167v-205h-167z"/>
  </clipPath>
  <clipPath id="clip105">
   <path d="m0 204.8h167v-205h-167z"/>
  </clipPath>
  <clipPath>
   <path d="m10.398 50.199v-40h40v0.80078h-39.199v39.199z"/>
  </clipPath>
  <clipPath id="clip100">
   <rect width="167" height="205"/>
  </clipPath>
  <g clip-path="url(#clip100)">
   <g clip-path="url(#clip101)">
    <g clip-path="url(#clip102)">
     <g clip-path="url(#clip103)">
      <g clip-path="url(#clip104)">
       <g clip-path="url(#clip105)"></g>
      </g>
     </g>
    </g>
   </g>
  </g>
  <clipPath>
   <rect width="167" height="205"/>
  </clipPath>
  <clipPath id="clip95">
   <rect width="167" height="205"/>
  </clipPath>
  <g clip-path="url(#clip95)">
   <g clip-path="url(#clip96)">
    <g clip-path="url(#clip97)"></g>
   </g>
  </g>
  <clipPath>
   <rect width="167" height="205"/>
  </clipPath>
  <clipPath id="clip109">
   <path d="m0 204.8h166.4v-204.8h-166.4z"/>
  </clipPath>
  <clipPath id="clip110">
   <path d="m0 204.8h166.4v-204.8h-166.4z"/>
  </clipPath>
  <clipPath>
   <path d="m0 204.8h167v-205h-167z"/>
  </clipPath>
  <clipPath id="clip114">
   <path d="m0 204.8h166.4v-204.8h-166.4z"/>
  </clipPath>
  <clipPath id="clip115">
   <path d="m0 204.8h166.4v-204.8h-166.4z"/>
  </clipPath>
  <clipPath id="clip116">
   <path d="m0 204.8h167v-205h-167z"/>
  </clipPath>
  <clipPath id="clip117">
   <path d="m0 204.8h167v-205h-167z"/>
  </clipPath>
  <clipPath id="clip118">
   <path d="m0 204.8h167v-205h-167z"/>
  </clipPath>
  <clipPath>
   <path d="m102.16 17.906 47.73 47.73-0.5664 0.5625-47.727-47.727z"/>
  </clipPath>
  <clipPath id="clip113">
   <rect width="167" height="205"/>
  </clipPath>
  <g clip-path="url(#clip113)">
   <g clip-path="url(#clip114)">
    <g clip-path="url(#clip115)">
     <g clip-path="url(#clip116)">
      <g clip-path="url(#clip117)">
       <g clip-path="url(#clip118)"></g>
      </g>
     </g>
    </g>
   </g>
  </g>
  <clipPath>
   <rect width="167" height="205"/>
  </clipPath>
  <clipPath id="clip108">
   <rect width="167" height="205"/>
  </clipPath>
  <g clip-path="url(#clip108)">
   <g clip-path="url(#clip109)">
    <g clip-path="url(#clip110)"></g>
   </g>
  </g>
  <clipPath>
   <rect width="167" height="205"/>
  </clipPath>
  <clipPath id="clip122">
   <path d="m0 204.8h166.4v-204.8h-166.4z"/>
  </clipPath>
  <clipPath id="clip123">
   <path d="m0 204.8h166.4v-204.8h-166.4z"/>
  </clipPath>
  <clipPath>
   <path d="m0 204.8h167v-205h-167z"/>
  </clipPath>
  <clipPath id="clip127">
   <path d="m0 204.8h166.4v-204.8h-166.4z"/>
  </clipPath>
  <clipPath id="clip128">
   <path d="m0 204.8h166.4v-204.8h-166.4z"/>
  </clipPath>
  <clipPath id="clip129">
   <path d="m0 204.8h167v-205h-167z"/>
  </clipPath>
  <clipPath id="clip130">
   <path d="m0 204.8h167v-205h-167z"/>
  </clipPath>
  <clipPath id="clip131">
   <path d="m0 204.8h167v-205h-167z"/>
  </clipPath>
  <clipPath>
   <path d="m97.367 21.906 47.727 47.73-0.5625 0.5625-47.73-47.727z"/>
  </clipPath>
  <clipPath id="clip126">
   <rect width="167" height="205"/>
  </clipPath>
  <g clip-path="url(#clip126)">
   <g clip-path="url(#clip127)">
    <g clip-path="url(#clip128)">
     <g clip-path="url(#clip129)">
      <g clip-path="url(#clip130)">
       <g clip-path="url(#clip131)"></g>
      </g>
     </g>
    </g>
   </g>
  </g>
  <clipPath>
   <rect width="167" height="205"/>
  </clipPath>
  <clipPath id="clip121">
   <rect width="167" height="205"/>
  </clipPath>
  <g clip-path="url(#clip121)">
   <g clip-path="url(#clip122)">
    <g clip-path="url(#clip123)"></g>
   </g>
  </g>
  <clipPath>
   <rect width="167" height="205"/>
  </clipPath>
  <clipPath id="clip135">
   <path d="m0 204.8h166.4v-204.8h-166.4z"/>
  </clipPath>
  <clipPath id="clip136">
   <path d="m0 204.8h166.4v-204.8h-166.4z"/>
  </clipPath>
  <clipPath>
   <path d="m0 204.8h167v-205h-167z"/>
  </clipPath>
  <clipPath id="clip140">
   <path d="m0 204.8h166.4v-204.8h-166.4z"/>
  </clipPath>
  <clipPath id="clip141">
   <path d="m0 204.8h166.4v-204.8h-166.4z"/>
  </clipPath>
  <clipPath id="clip142">
   <path d="m0 204.8h167v-205h-167z"/>
  </clipPath>
  <clipPath id="clip143">
   <path d="m0 204.8h167v-205h-167z"/>
  </clipPath>
  <clipPath id="clip144">
   <path d="m0 204.8h167v-205h-167z"/>
  </clipPath>
  <clipPath>
   <path d="m113.37 5.9062 47.73 47.73-0.56641 0.5625-47.73-47.727z"/>
  </clipPath>
  <clipPath id="clip139">
   <rect width="167" height="205"/>
  </clipPath>
  <g clip-path="url(#clip139)">
   <g clip-path="url(#clip140)">
    <g clip-path="url(#clip141)">
     <g clip-path="url(#clip142)">
      <g clip-path="url(#clip143)">
       <g clip-path="url(#clip144)"></g>
      </g>
     </g>
    </g>
   </g>
  </g>
  <clipPath>
   <rect width="167" height="205"/>
  </clipPath>
  <clipPath id="clip134">
   <rect width="167" height="205"/>
  </clipPath>
  <g clip-path="url(#clip134)">
   <g clip-path="url(#clip135)">
    <g clip-path="url(#clip136)"></g>
   </g>
  </g>
  <clipPath>
   <rect width="167" height="205"/>
  </clipPath>
  <clipPath id="clip148">
   <path d="m0 204.8h166.4v-204.8h-166.4z"/>
  </clipPath>
  <clipPath id="clip149">
   <path d="m0 204.8h166.4v-204.8h-166.4z"/>
  </clipPath>
  <clipPath>
   <path d="m0 204.8h167v-205h-167z"/>
  </clipPath>
  <clipPath id="clip153">
   <path d="m0 204.8h166.4v-204.8h-166.4z"/>
  </clipPath>
  <clipPath id="clip154">
   <path d="m0 204.8h166.4v-204.8h-166.4z"/>
  </clipPath>
  <clipPath id="clip155">
   <path d="m0 204.8h167v-205h-167z"/>
  </clipPath>
  <clipPath id="clip156">
   <path d="m0 204.8h167v-205h-167z"/>
  </clipPath>
  <clipPath id="clip157">
   <path d="m0 204.8h167v-205h-167z"/>
  </clipPath>
  <clipPath>
   <path d="m6.3984 11v182.4h-0.79688v-182.4z"/>
  </clipPath>
  <clipPath id="clip152">
   <rect width="167" height="205"/>
  </clipPath>
  <g clip-path="url(#clip152)">
   <g clip-path="url(#clip153)">
    <g clip-path="url(#clip154)">
     <g clip-path="url(#clip155)">
      <g clip-path="url(#clip156)">
       <g clip-path="url(#clip157)"></g>
      </g>
     </g>
    </g>
   </g>
  </g>
  <clipPath>
   <rect width="167" height="205"/>
  </clipPath>
  <clipPath id="clip147">
   <rect width="167" height="205"/>
  </clipPath>
  <g clip-path="url(#clip147)">
   <g clip-path="url(#clip148)">
    <g clip-path="url(#clip149)"></g>
   </g>
  </g>
  <clipPath>
   <rect width="167" height="205"/>
  </clipPath>
  <clipPath id="clip161">
   <path d="m0 204.8h166.4v-204.8h-166.4z"/>
  </clipPath>
  <clipPath id="clip162">
   <path d="m0 204.8h166.4v-204.8h-166.4z"/>
  </clipPath>
  <clipPath>
   <path d="m0 204.8h167v-205h-167z"/>
  </clipPath>
  <clipPath id="clip166">
   <path d="m0 204.8h166.4v-204.8h-166.4z"/>
  </clipPath>
  <clipPath id="clip167">
   <path d="m0 204.8h166.4v-204.8h-166.4z"/>
  </clipPath>
  <clipPath id="clip168">
   <path d="m0 204.8h167v-205h-167z"/>
  </clipPath>
  <clipPath id="clip169">
   <path d="m0 204.8h167v-205h-167z"/>
  </clipPath>
  <clipPath id="clip170">
   <path d="m0 204.8h167v-205h-167z"/>
  </clipPath>
  <clipPath>
   <path d="m155.2 77.691v115.8h0.80078v-115.8z"/>
  </clipPath>
  <clipPath id="clip165">
   <rect width="167" height="205"/>
  </clipPath>
  <g clip-path="url(#clip165)">
   <g clip-path="url(#clip166)">
    <g clip-path="url(#clip167)">
     <g clip-path="url(#clip168)">
      <g clip-path="url(#clip169)">
       <g clip-path="url(#clip170)"></g>
      </g>
     </g>
    </g>
   </g>
  </g>
  <clipPath>
   <rect width="167" height="205"/>
  </clipPath>
  <clipPath id="clip160">
   <rect width="167" height="205"/>
  </clipPath>
  <g clip-path="url(#clip160)">
   <g clip-path="url(#clip161)">
    <g clip-path="url(#clip162)"></g>
   </g>
  </g>
  <clipPath>
   <rect width="167" height="205"/>
  </clipPath>
  <clipPath id="clip174">
   <path d="m0 204.8h166.4v-204.8h-166.4z"/>
  </clipPath>
  <clipPath id="clip175">
   <path d="m0 204.8h166.4v-204.8h-166.4z"/>
  </clipPath>
  <clipPath>
   <path d="m0 204.8h167v-205h-167z"/>
  </clipPath>
  <clipPath id="clip179">
   <path d="m0 204.8h166.4v-204.8h-166.4z"/>
  </clipPath>
  <clipPath id="clip180">
   <path d="m0 204.8h166.4v-204.8h-166.4z"/>
  </clipPath>
  <clipPath id="clip181">
   <path d="m0 204.8h167v-205h-167z"/>
  </clipPath>
  <clipPath id="clip182">
   <path d="m0 204.8h167v-205h-167z"/>
  </clipPath>
  <clipPath id="clip183">
   <path d="m0 204.8h167v-205h-167z"/>
  </clipPath>
  <clipPath>
   <path d="m104 142.2h51.199v51.203h-51.199z"/>
  </clipPath>
  <clipPath id="clip178">
   <rect width="167" height="205"/>
  </clipPath>
  <g clip-path="url(#clip178)">
   <g clip-path="url(#clip179)">
    <g clip-path="url(#clip180)">
     <g clip-path="url(#clip181)">
      <g clip-path="url(#clip182)">
       <g clip-path="url(#clip183)"></g>
      </g>
     </g>
    </g>
   </g>
  </g>
  <clipPath>
   <rect width="167" height="205"/>
  </clipPath>
  <clipPath id="clip173">
   <rect width="167" height="205"/>
  </clipPath>
  <g clip-path="url(#clip173)">
   <g clip-path="url(#clip174)">
    <g clip-path="url(#clip175)"></g>
   </g>
  </g>
  <clipPath>
   <rect width="167" height="205"/>
  </clipPath>
  <clipPath id="clip187">
   <path d="m0 204.8h166.4v-204.8h-166.4z"/>
  </clipPath>
  <clipPath id="clip188">
   <path d="m0 204.8h166.4v-204.8h-166.4z"/>
  </clipPath>
  <clipPath>
   <path d="m0 204.8h167v-205h-167z"/>
  </clipPath>
  <clipPath id="clip192">
   <path d="m0 204.8h166.4v-204.8h-166.4z"/>
  </clipPath>
  <clipPath id="clip193">
   <path d="m0 204.8h166.4v-204.8h-166.4z"/>
  </clipPath>
  <clipPath id="clip194">
   <path d="m0 204.8h167v-205h-167z"/>
  </clipPath>
  <clipPath id="clip195">
   <path d="m0 204.8h167v-205h-167z"/>
  </clipPath>
  <clipPath id="clip196">
   <path d="m0 204.8h167v-205h-167z"/>
  </clipPath>
  <clipPath>
   <path d="m154.4 152.6v40h-40v-0.80078h39.203v-39.199z"/>
  </clipPath>
  <clipPath id="clip191">
   <rect width="167" height="205"/>
  </clipPath>
  <g clip-path="url(#clip191)">
   <g clip-path="url(#clip192)">
    <g clip-path="url(#clip193)">
     <g clip-path="url(#clip194)">
      <g clip-path="url(#clip195)">
       <g clip-path="url(#clip196)"></g>
      </g>
     </g>
    </g>
   </g>
  </g>
  <clipPath>
   <rect width="167" height="205"/>
  </clipPath>
  <clipPath id="clip186">
   <rect width="167" height="205"/>
  </clipPath>
  <g clip-path="url(#clip186)">
   <g clip-path="url(#clip187)">
    <g clip-path="url(#clip188)"></g>
   </g>
  </g>
  <linearGradient id="linearGradient18490" x1="-88.358" x2="-136.22" y1="367.21" y2="323.84" gradientTransform="matrix(1.2223 0 0 1.2223 -389.73 -103.1)" gradientUnits="userSpaceOnUse">
   <stop stop-color="#5b5b5b" offset="0"/>
   <stop stop-color="#5b5b5b" stop-opacity="0" offset="1"/>
  </linearGradient>
  <linearGradient id="linearGradient18492" x1="-124.38" x2="-40.174" y1="422.68" y2="374.79" gradientTransform="matrix(1.2223 0 0 1.2223 -389.73 -103.1)" gradientUnits="userSpaceOnUse">
   <stop offset="0"/>
   <stop stop-opacity="0" offset="1"/>
  </linearGradient>
  <linearGradient id="linearGradient18494" x1="-317.82" x2="-151.05" y1="417.7" y2="272.68" gradientTransform="matrix(1.2223 0 0 1.2223 -389.73 -103.1)" gradientUnits="userSpaceOnUse">
   <stop offset="0"/>
   <stop stop-opacity="0" offset="1"/>
  </linearGradient>
  <clipPath id="clipPath1196">
   <ellipse cx="-194.32" cy="125.83" rx="89.973" ry="89.951" fill="none" stroke="#1a1a1a" stroke-dasharray="1.23050973, 0.15381372" stroke-linecap="round" stroke-width="1.1536" style="paint-order:stroke markers fill"/>
  </clipPath>
 </defs>
 <metadata>
  <rdf:RDF>
   <cc:Work rdf:about="">
    <dc:format>image/svg+xml</dc:format>
    <dc:type rdf:resource="http://purl.org/dc/dcmitype/StillImage"/>
    <dc:title/>
   </cc:Work>
  </rdf:RDF>
 </metadata>
 <g transform="translate(643.01 -209.52)">
  <g transform="matrix(1.3569 0 0 1.3572 -257.26 160.83)" clip-path="url(#clipPath1196)" stroke-width="1.4452">
   <g transform="translate(5.3553)">
    <g transform="translate(-.00011108)">
     <g transform="matrix(.80221 0 0 .80237 -283.1 19.439)" stroke-width="1.8013">
      <g transform="matrix(1.116 0 0 1.116 -22.452 20.5)" stroke-width="1.6141"></g>
     </g>
    </g>
    <g>
     <rect transform="matrix(.73697 0 0 .73679 184.23 -118.49)" x="-658.87" y="199.31" width="264.58" height="264.58" fill="#40ba2e" style="paint-order:markers fill stroke"/>
     <g fill-rule="evenodd">
      <path transform="matrix(.73697 0 0 .73679 184.23 -118.49)" d="m-658.87 199.31v264.58h161.42l-152.76-264.58z" fill="#5b5b5b" opacity=".213"/>
      <path transform="matrix(.73697 0 0 .73679 184.23 -118.49)" d="m-427.89 199.31-230.98 230.98v33.606h264.58v-264.58z" fill="#666"/>
      <path transform="matrix(.73697 0 0 .73679 184.23 -118.49)" d="m-520.67 292.09-138.2 138.2v33.606h237.39z" fill="#5b5b5b"/>
      <path transform="matrix(.73697 0 0 .73679 184.23 -118.49)" d="m-658.87 430.29 230.98-230.98-230.98-1.3e-4z" fill="url(#linearGradient18490)"/>
      <path transform="matrix(.73697 0 0 .73679 184.23 -118.49)" d="m-520.67 292.09 92.78-92.78 33.606-1.3e-4 -1.3e-4 264.58h-27.196z" fill="url(#linearGradient18492)"/>
      <path transform="matrix(.73697 0 0 .73679 184.23 -118.49)" d="m-650.21 199.31 81.372 140.94 140.94-140.94z" fill="url(#linearGradient18494)"/>
     </g>
     <rect transform="matrix(.73697 0 0 .73679 184.23 -118.49)" x="-658.87" y="303.84" width="264.58" height="50.516" opacity=".213" style="paint-order:markers fill stroke"/>
    </g>
    <g transform="matrix(.72855 0 0 .72869 -275.97 29.038)">
     <path transform="rotate(225)" d="m-86.076-39.553a86.482 86.482 0 0 1-37.786 98.076 86.482 86.482 0 0 1-104.54-10.826 86.482 86.482 0 0 1-16.888-103.74 86.482 86.482 0 0 1 95.712-43.427" fill="none" stroke="#fff" stroke-linecap="round" stroke-linejoin="bevel" stroke-width="3.6024" style="paint-order:markers fill stroke"/>
     <g stroke-width="1.8013">
      <circle cx="38.971" cy="180.81" r="10.12" fill="#5b5b5b" stroke="#fff" stroke-linejoin="round" stroke-width="1.8013" style="paint-order:markers fill stroke"/>
      <path d="m35.437 176.11c-0.15217 0-0.29197 0.1359-0.29197 0.29921v8.8284c0 0.14228 0.1336 0.29197 0.28577 0.29197h7.0636c0.17031 0 0.30334-0.1428 0.30334-0.28525v-5.4891c0-0.1554-0.0187-0.22769-0.12868-0.33745l-3.1393-3.1378c-0.10994-0.10994-0.19393-0.16673-0.34933-0.16691zm5.1087 2e-3c-0.2517 0-0.26283 0.26217-0.12971 0.39584l1.957 1.9658c0.15972 0.16044 0.4253 0.12221 0.4253-0.13074v-1.9291c0-0.15557-0.14073-0.30179-0.29559-0.30179z" fill="#fff" style="paint-order:markers fill stroke"/>
     </g>
    </g>
    <g transform="matrix(1.6855 0 0 1.6855 113.54 -75.047)">
     <g transform="matrix(.667 0 0 .66713 -265.92 27.839)" stroke-width="2.1665">
      <text x="106.65696" y="142.39679" fill="#ffffff" font-family="'Liberation Sans'" font-size="19.942px" stroke-linejoin="round" stroke-width=".29456" text-align="center" text-anchor="middle" style="font-feature-settings:normal;font-variant-caps:normal;font-variant-ligatures:normal;font-variant-numeric:normal;line-height:73.67972565px;paint-order:markers fill stroke" xml:space="preserve"><tspan x="106.65696" y="142.39679" fill="#ffffff" font-family="'Liberation Sans'" stroke-width=".29456"><tspan font-weight="bold" stroke-width=".29456">Libre</tspan>Office</tspan></text>
      <g transform="translate(121.12 .99685)" stroke-width="2.1665">
       <rect x="41.225" y="128.94" width="12.651" height="12.651" fill="#ec7265" style="paint-order:markers fill stroke"/>
       <text x="47.417824" y="139.01331" fill="#ffffff" font-family="'Liberation Sans'" font-size="10.884px" stroke-linejoin="round" stroke-width=".16077" text-align="center" text-anchor="middle" style="font-feature-settings:normal;font-variant-caps:normal;font-variant-ligatures:normal;font-variant-numeric:normal;line-height:40.21450043px;paint-order:markers fill stroke" xml:space="preserve"><tspan x="47.417824" y="139.01331" fill="#ffffff" font-family="'Liberation Sans'" font-weight="bold" stroke-width=".16077">ID</tspan></text>
      </g>
      <circle cx="159.18" cy="140.82" r="1.4021" fill="#fff" style="paint-order:markers fill stroke"/>
     </g>
     <g transform="matrix(1.116 0 0 1.116 -345.99 -10.261)" stroke-width="1.295"></g>
    </g>
   </g>
  </g>
 </g>
</svg>
